# xmcd
#
# Track frame offsets: 
#        150
#        14922
#        26791
#        43363
#        61322
#        81011
#        96460
#        115673
#        136829
#        153342
#        171404
#        182873
#        191578
#        209866
#        231633
#
# Disc length: 3094 seconds
#
# Revision: 1
# Processed by: cddbd v1.5.2PL0 Copyright (c) Steve Scherf et al.
# Submitted via: ExactAudioCopyFreeDBPlugin 1.0
#
DISCID=e50c140f
DTITLE=Adrienne Young and Little Sadie - Plow to the End of the Row
DYEAR=2004
DGENRE=Bluegrass
TTITLE0=Plow to the End of the Row
TTITLE1=Leather Britches
TTITLE2=Home Remedy
TTITLE3=Sadie's Song
TTITLE4=Nippers' Corner
TTITLE5=I Cannot Justify
TTITLE6=Conestoga
TTITLE7=Poison
TTITLE8=Her Eyes Were Watching God
TTITLE9=Blinded By Stars
TTITLE10=Soldier's Joy
TTITLE11=Marching Jaybird
TTITLE12=Lonesome Road Blues
TTITLE13=Satan, Yer Kingdom Must Come Down
TTITLE14=mia
EXTD=
EXTT0=
EXTT1=
EXTT2=
EXTT3=
EXTT4=
EXTT5=
EXTT6=
EXTT7=
EXTT8=
EXTT9=
EXTT10=
EXTT11=
EXTT12=
EXTT13=
EXTT14=
PLAYORDER=
